<svg xmlns="http://www.w3.org/2000/svg" width="534" height="129" viewBox="0 0 534 129" fill="none">
<path d="M64.4998 123.276C52.1308 123.276 40.0778 120.866 28.6734 116.116L28.3915 115.998L28.191 115.768C20.1139 106.475 14.0801 95.8438 10.2574 84.1716C6.43637 72.4978 5.02039 60.3778 6.05019 48.1478L6.07627 47.8455L6.23432 47.5852C12.6462 37.0901 20.971 28.1116 30.9774 20.8972C40.9821 13.6827 52.1617 8.60251 64.2017 5.79401L64.4998 5.72449L64.798 5.79401C76.838 8.60251 88.0175 13.6827 98.0239 20.8972C108.03 28.1116 116.355 37.0901 122.767 47.5852L122.925 47.8455L122.951 48.1478C123.981 60.3778 122.565 72.4978 118.742 84.17C114.92 95.8421 108.886 106.473 100.809 115.767L100.608 115.996L100.326 116.114C88.9219 120.865 76.8689 123.274 64.4998 123.274V123.276Z" fill="white"/>
<path d="M121.651 48.2562C117.677 41.7515 110.105 31.2063 97.2567 21.9433C84.4086 12.6803 71.9629 8.79331 64.5001 7.05356C57.0373 8.79331 44.5916 12.6819 31.7435 21.9433C18.8954 31.2063 11.3233 41.7499 7.34909 48.2562C6.71035 55.8376 6.5914 68.7839 11.4977 83.7706C16.4056 98.7574 24.1715 109.162 29.1787 114.923C36.2473 117.867 48.6196 121.982 64.5001 121.982C80.3806 121.982 92.753 117.867 99.8215 114.923C104.829 109.162 112.595 98.7574 117.502 83.7706C122.41 68.7839 122.29 55.836 121.651 48.2562Z" fill="#0192D5"/>
<path d="M37.7869 110.952C38.173 110.224 38.6228 108.843 38.7971 108.284L38.802 108.269L38.8183 108.235V108.227L38.8525 108.166V108.092C39.1605 106.973 39.3251 105.176 39.3397 102.751C42.2743 102.314 44.9075 100.714 46.8286 99.5448L46.8449 99.5351C47.5798 99.0872 48.2136 98.7024 48.7253 98.4679C50.4835 97.6595 52.3964 97.2504 54.4137 97.2504C55.7612 97.2504 57.1756 97.4331 58.616 97.7937L59.1456 96.6344C57.8371 95.7387 56.6835 94.6554 55.6325 93.6173L55.2822 93.2713L54.852 93.5122C52.869 94.6263 47.394 96.906 43.1233 97.3879C42.3216 97.4784 41.5427 97.5237 40.8095 97.5237C35.9358 97.5237 32.5922 95.4929 30.8699 91.4863V91.4637L30.7037 91.1338L30.5098 91.0368C27.9613 89.7692 26.7572 86.4417 26.6773 84.9412L26.6627 84.6712L26.459 84.4917C24.621 82.8684 24.1631 79.6977 24.432 78.0647L24.4401 78.013V77.7462L24.3114 77.5732C23.2865 76.2037 23.249 74.2149 23.3305 72.6353L23.3468 72.3054L23.0877 72.0985C21.5316 70.8503 20.8195 68.4249 21.2301 65.7684C21.8509 61.7651 23.8144 58.858 25.5465 56.2936L25.7453 55.9993C26.3156 55.1569 27.0081 54.1351 27.6664 52.9208C27.4953 54.2935 27.1662 55.8134 26.6773 57.1408C25.7583 59.634 25.3331 61.5128 25.3005 63.2316C25.2581 65.4402 26.7116 67.8364 30.0568 68.2115C30.4332 68.2536 30.8145 68.2762 31.186 68.2762C33.7084 68.2762 35.8152 67.2915 38.0476 66.2486L38.0639 66.2406C40.1414 65.2688 42.4976 64.1677 45.4273 63.8444H45.4485L45.4697 63.8379L45.5055 63.8347C45.7043 63.8136 45.908 63.8039 46.11 63.8039C47.6466 63.8039 49.1457 64.399 50.2244 65.437C51.2966 66.4669 51.8261 67.8025 51.7202 69.1994C51.629 70.3603 51.3699 71.3499 51.1613 72.147L51.1369 72.2424C51.0929 72.4138 51.0489 72.5771 51.013 72.7339C50.5845 74.4995 50.4052 76.0663 52.5545 77.3242L53.3154 77.7688L53.5191 76.9167C53.8108 75.696 54.4821 73.2464 55.6993 70.5527L55.784 70.3668L55.7449 70.1663C55.3701 68.2471 52.051 51.2684 50.9299 45.8988C49.6981 39.9907 47.192 36.5533 45.807 35.9987C45.7711 35.9841 45.7353 35.9712 45.7011 35.9567C45.7206 35.9437 45.7385 35.9308 45.7565 35.9179C46.172 35.622 46.493 35.415 46.8645 35.1757L47.1643 34.9817C48.313 34.2331 49.5025 33.4586 50.8191 33.4586C50.925 33.4586 51.0342 33.4635 51.1401 33.4732C51.9777 33.5508 52.6995 33.8483 53.2828 34.356L54.1823 35.1401L54.3566 33.9647C54.4642 33.2403 54.7249 32.6857 55.1323 32.3171C55.7563 31.7512 56.7649 31.4957 57.6563 31.271C58.4596 31.0656 58.9924 30.9137 59.61 30.5111C59.6539 30.482 59.6979 30.4528 59.7387 30.4221L60.1411 32.2702L60.9803 30.7342C61.096 30.5224 61.2149 30.3461 61.4545 30.1198C61.8015 29.7916 62.2725 29.5264 62.8509 29.3307C63.2664 29.1901 63.6754 28.9475 64.0616 28.6096C64.2131 28.477 64.3598 28.3331 64.495 28.1795C64.6303 28.3315 64.7753 28.4754 64.9268 28.608C65.3146 28.9475 65.722 29.1901 66.1391 29.3307C66.7176 29.5264 67.1885 29.7915 67.5372 30.1214C67.7718 30.3429 67.8924 30.5208 68.0113 30.7374L68.8521 32.2589L69.2513 30.4237C69.2921 30.4545 69.3361 30.4836 69.3801 30.5127C70.0009 30.9169 70.5321 31.0689 71.3338 31.2726C72.2251 31.4973 73.2353 31.7528 73.8578 32.3187C74.2651 32.6874 74.5258 33.2419 74.6334 33.9663L74.8077 35.1418L75.7088 34.3576C76.2922 33.8499 77.014 33.5524 77.8515 33.4748C77.9574 33.4651 78.065 33.4602 78.1725 33.4602C79.4875 33.4602 80.6232 34.2007 81.8241 34.9833L82.137 35.1854C82.5052 35.4231 82.8229 35.6284 83.2319 35.9195C83.2499 35.9324 83.2694 35.9453 83.2873 35.9583C83.2531 35.9712 83.2173 35.9858 83.1814 35.9987C81.7948 36.5533 79.2903 39.9907 78.0585 45.8988C77.0678 50.6491 74.3596 64.4507 73.2418 70.1647L73.2027 70.3652L73.2875 70.5527C74.5047 73.2432 75.176 75.696 75.4693 76.9183L75.673 77.7704L76.4339 77.3258C78.5831 76.0695 78.4039 74.5011 77.9754 72.7323C77.9379 72.5771 77.8939 72.4089 77.8483 72.2327L77.8271 72.1502C77.6185 71.3531 77.3578 70.3636 77.2682 69.201C77.1606 67.8057 77.6918 66.4702 78.7624 65.4402C79.8411 64.4022 81.3402 63.8072 82.8767 63.8072C83.0788 63.8072 83.2825 63.8169 83.4812 63.8379H83.5122L83.5334 63.8444L83.5611 63.8476C86.4908 64.171 88.8454 65.2721 90.9229 66.2438L90.9408 66.2519C93.1715 67.2948 95.2784 68.2794 97.8008 68.2794C98.1739 68.2794 98.5536 68.2584 98.93 68.2148C102.274 67.8396 103.729 65.4434 103.686 63.2348C103.654 61.5225 103.229 59.6437 102.31 57.1441C101.819 55.815 101.492 54.2952 101.319 52.9241C101.975 54.1351 102.666 55.1553 103.237 55.9977L103.439 56.2968C105.171 58.8628 107.134 61.7699 107.755 65.7717C108.164 68.4169 107.46 70.8325 105.919 72.0839L105.891 72.1033L105.64 72.3523L105.655 72.6401C105.736 74.2198 105.699 76.2085 104.674 77.578L104.545 77.7494V78.0162L104.553 78.0696C104.822 79.7026 104.363 82.8733 102.526 84.4966L102.323 84.6761L102.308 84.9461C102.23 86.4465 101.024 89.774 98.477 91.0417L98.1169 91.2211V91.4895C96.3946 95.4961 93.0509 97.5269 88.1773 97.5269C87.444 97.5269 86.6652 97.4817 85.8635 97.3911C81.5927 96.9093 76.1162 94.6295 74.1348 93.5155L73.7046 93.2746L73.3543 93.6206C72.3 94.6602 71.1448 95.7451 69.8412 96.6393L70.3708 97.7986C71.8112 97.438 73.2255 97.2553 74.5731 97.2553C76.5903 97.2553 78.5033 97.6644 80.2582 98.4728C80.778 98.7105 81.4167 99.1001 82.1581 99.5512C84.0825 100.722 86.714 102.323 89.647 102.759C89.6601 105.141 89.8279 106.982 90.1326 108.095V108.164L90.1782 108.25C90.2744 108.559 90.7762 110.156 91.1999 110.958C86.5853 110.845 84.6414 109.71 82.3928 108.395C82.3928 108.395 81.8762 108.095 81.7573 108.027C81.3353 107.784 80.9458 107.547 80.5515 107.304C78.5391 106.074 76.8054 105.013 73.2972 105.013C70.9948 105.013 69.2856 105.821 68.0553 106.528C67.8826 106.627 67.7083 106.73 67.5355 106.832L67.3987 106.913C66.364 107.529 65.3945 108.106 64.4852 108.106C63.576 108.106 62.6049 107.527 61.5767 106.916L61.404 106.814C61.2426 106.719 61.0813 106.622 60.9168 106.53C59.6882 105.825 57.9789 105.016 55.6765 105.016C52.1667 105.016 50.4329 106.077 48.4238 107.306C48.0279 107.548 47.6385 107.786 47.2164 108.03C47.0567 108.121 46.8987 108.213 46.7439 108.303L46.5842 108.397C44.3307 109.713 42.3884 110.848 37.7738 110.961L37.7869 110.952Z" fill="white"/>
<path d="M108.409 65.8832C107.767 61.7424 105.761 58.769 103.989 56.1465C103.023 54.7139 101.544 52.6282 100.602 49.9037C100.379 51.4996 100.713 54.8837 101.705 57.5758C102.455 59.613 103.007 61.5921 103.043 63.4563C103.077 65.2316 102.003 67.4289 98.8649 67.7814C95.9938 68.1048 93.7827 67.07 91.2195 65.8719C89.0931 64.8775 86.6832 63.749 83.641 63.4127C83.6133 63.4078 83.5856 63.4046 83.5579 63.403C81.6417 63.2041 79.6831 63.8686 78.3176 65.1831C77.1037 66.3489 76.5041 67.8671 76.6263 69.4581C76.7208 70.6659 76.988 71.6926 77.2047 72.5188C77.2569 72.7193 77.3074 72.9101 77.3498 73.0896C77.7587 74.7776 77.881 75.9401 76.1114 76.9749C75.8132 75.7283 75.1337 73.2432 73.8905 70.4945C74.8127 65.7814 77.6822 51.1406 78.7055 46.2367C79.9178 40.4192 82.3603 37.234 83.4325 36.8055C84.3906 36.4239 84.9837 36.4546 84.9837 36.4546C84.9837 36.4546 84.1592 35.9825 83.6198 35.5993C83.0821 35.2161 82.6911 34.9736 82.1892 34.647C80.8547 33.7771 79.4762 32.8798 77.7979 33.035C76.6833 33.1385 75.8702 33.5669 75.2853 34.0762C75.1761 33.3406 74.9023 32.5871 74.3043 32.0455C73.5629 31.3728 72.468 31.0947 71.5017 30.8506C70.7701 30.6646 70.291 30.5321 69.7435 30.1764C69.1944 29.819 68.8913 29.245 68.8913 29.245L68.5899 30.6323C68.4514 30.3817 68.295 30.144 67.9919 29.8578C67.5291 29.4229 66.9572 29.1286 66.3543 28.9249C66.004 28.8069 65.665 28.5934 65.3636 28.3299C65.0165 28.0259 64.7167 27.6557 64.5 27.2854C64.2849 27.6557 63.9851 28.0275 63.6364 28.3299C63.3349 28.5934 62.996 28.8069 62.6457 28.9249C62.0428 29.1286 61.4709 29.4229 61.0097 29.8578C60.7067 30.144 60.5486 30.3817 60.4117 30.6323L60.1103 29.245C60.1103 29.245 59.8056 29.819 59.2581 30.1764C58.7106 30.5321 58.2299 30.6646 57.4999 30.8506C56.5337 31.0947 55.4387 31.3728 54.6973 32.0455C54.0993 32.5871 53.8255 33.3406 53.7164 34.0762C53.1314 33.5669 52.3183 33.1385 51.2038 33.035C49.5254 32.8798 48.1453 33.7771 46.8108 34.647C46.3089 34.9736 45.9195 35.2161 45.3802 35.5993C44.8424 35.9825 44.0179 36.4546 44.0179 36.4546C44.0179 36.4546 44.6111 36.4239 45.5675 36.8055C46.6397 37.234 49.0839 40.4192 50.2962 46.2367C51.3195 51.1406 54.1889 65.7846 55.1095 70.4961C53.8679 73.2448 53.1884 75.7283 52.8902 76.9749C51.1207 75.9401 51.2429 74.7776 51.6519 73.0896C51.6942 72.9101 51.7447 72.7193 51.7969 72.5188C52.0136 71.6926 52.2808 70.6659 52.3753 69.4581C52.4975 67.8671 51.8979 66.3489 50.684 65.1831C49.3185 63.8686 47.3599 63.2041 45.4437 63.403C45.416 63.4046 45.3883 63.4078 45.3606 63.4127C42.3184 63.749 39.9085 64.8775 37.7821 65.8719C35.219 67.07 33.0078 68.1048 30.1368 67.7814C26.9985 67.4289 25.9247 65.2316 25.9589 63.4563C25.9947 61.5921 26.5455 59.613 27.2966 57.5758C28.289 54.8837 28.6214 51.4996 28.3998 49.9037C27.4563 52.6282 25.9784 54.7139 25.0122 56.1465C23.241 58.769 21.2351 61.7424 20.5931 65.8832C20.1418 68.8033 20.9402 71.4161 22.6853 72.8147C22.5892 74.6741 22.6886 76.6952 23.7933 78.1714C23.4723 80.123 24.0573 83.444 26.0306 85.187C26.1251 86.9898 27.5264 90.4871 30.2215 91.8275C32.3088 96.8187 36.6741 98.9756 43.2 98.2399C47.5718 97.7468 53.1412 95.4282 55.1763 94.2851C56.1752 95.2714 57.3826 96.421 58.779 97.3765C55.8053 96.6328 52.1179 96.4064 48.4549 98.0912C47.9042 98.3434 47.2491 98.7428 46.4898 99.2052C44.6159 100.345 42.048 101.907 39.2437 102.324L38.6929 102.407L38.6897 102.96C38.675 105.349 38.5088 107.165 38.2041 108.211C38.2041 108.211 38.2041 108.216 38.2025 108.219C38.2008 108.224 38.1992 108.229 38.1976 108.237C38.1943 108.243 38.1927 108.253 38.1894 108.263C38.1846 108.274 38.1813 108.289 38.1764 108.305C38.0591 108.678 37.5931 110.143 37.2101 110.864L36.6969 111.839L37.8049 111.812C42.5906 111.694 44.6013 110.518 46.9298 109.159C47.1351 109.039 47.3436 108.916 47.5587 108.793C47.9889 108.546 48.3914 108.3 48.7808 108.061C50.7834 106.835 52.3656 105.867 55.6912 105.867C57.8389 105.867 59.4471 106.63 60.6073 107.294C60.8256 107.419 61.0407 107.548 61.2542 107.674C62.3622 108.334 63.4099 108.958 64.5 108.958C65.5901 108.958 66.6378 108.334 67.7458 107.674C67.9593 107.548 68.176 107.419 68.3944 107.294C69.5545 106.63 71.1611 105.867 73.3104 105.867C76.6344 105.867 78.2166 106.835 80.2208 108.061C80.6103 108.3 81.0127 108.546 81.4429 108.793C81.6564 108.916 81.8649 109.039 82.0719 109.159C84.4003 110.518 86.4111 111.694 91.1967 111.812L92.3031 111.839L91.7898 110.864C91.3662 110.062 90.8366 108.342 90.7991 108.219C90.7991 108.216 90.7975 108.213 90.7975 108.213C90.4928 107.165 90.325 105.349 90.3119 102.96L90.3087 102.407L89.7563 102.324C86.952 101.907 84.3857 100.345 82.5118 99.2052C81.7525 98.7428 81.0958 98.3434 80.5451 98.0912C76.8854 96.4064 73.1979 96.6328 70.2242 97.3765C71.619 96.4194 72.8248 95.2714 73.8253 94.2851C75.8604 95.4282 81.4299 97.7468 85.8017 98.2399C92.3276 98.9756 96.6928 96.8187 98.7801 91.8275C101.475 90.4871 102.875 86.9914 102.969 85.1886C104.943 83.4456 105.528 80.1246 105.207 78.1746C106.311 76.6968 106.411 74.6757 106.315 72.8163C108.06 71.4178 108.858 68.8049 108.407 65.8848L108.409 65.8832ZM74.2229 75.0541C73.6412 74.5108 73.0269 74.0371 72.4223 73.5714C71.751 73.0556 71.1188 72.5673 70.5648 72.0095C69.3199 70.7581 68.0489 69.0216 68.0489 65.6472V64.0691C69.2074 65.3723 71.0178 67.5923 72.1926 69.9513C73.1132 71.8026 73.7748 73.6151 74.2229 75.0541ZM62.178 57.3688C62.178 57.3688 62.1715 57.3607 62.1699 57.3559C62.152 57.33 62.1357 57.3057 62.1194 57.2799C62.1145 57.275 62.1112 57.2702 62.108 57.2653C61.7251 56.6719 61.4725 56.0705 61.4725 55.4302C61.4725 53.6274 62.5773 52.5037 63.7488 51.3136C64.0014 51.0566 64.2556 50.7979 64.5 50.5311C64.7444 50.7979 65.0002 51.0566 65.2528 51.3136C66.4227 52.5037 67.5291 53.6274 67.5291 55.4302C67.5291 56.0705 67.2766 56.6719 66.8936 57.2653C66.8904 57.2702 66.8871 57.275 66.8822 57.2799C66.8659 57.3057 66.8496 57.33 66.8317 57.3559C66.8301 57.3607 66.8268 57.3656 66.8236 57.3688C66.4521 57.9185 65.9714 58.4618 65.4777 59.018C65.1453 59.3947 64.808 59.7747 64.5 60.1676C64.192 59.7747 63.8547 59.3947 63.5223 59.018C63.0302 58.4618 62.5496 57.9185 62.178 57.3688ZM51.572 45.9748C50.7524 42.0361 49.3495 37.4749 47.1074 36.0003C47.2491 35.9098 47.3893 35.8176 47.5261 35.7287C48.7775 34.9138 49.8595 34.2088 51.0816 34.3236C53.2422 34.5241 53.8076 36.453 53.8288 36.5323H53.8321C53.951 36.5791 55.1144 43.425 55.701 48.0767C55.8314 49.1212 56.0644 51.1035 56.2306 52.4357C56.5826 52.1399 56.9834 51.8278 57.4299 51.5141C57.2783 50.2708 57.1023 48.7752 56.9948 47.9166C56.4115 43.2908 55.8591 38.9074 55.2089 36.5969C55.0655 36.0925 54.9743 35.5751 54.9678 35.0512C54.9564 34.3091 55.0802 33.4505 55.5756 33.001C56.0774 32.5467 56.9638 32.3203 57.8226 32.1037C58.3489 31.9695 58.8589 31.8401 59.3005 31.6542L59.6263 33.1514C59.6785 33.3955 59.716 33.6429 59.7355 33.8919C59.9034 35.9259 60.5111 43.813 60.736 49.7534C61.1499 49.5998 61.58 49.464 62.0249 49.3556C61.7707 42.935 61.0994 34.4902 61.0032 33.4004C61.0114 33.2096 61.0831 32.0697 61.5882 31.1934C61.7707 30.8781 62.4322 30.3688 63.0889 30.1408C63.5891 29.9678 64.0715 29.667 64.5 29.2903C64.9302 29.667 65.4125 29.9678 65.9127 30.1408C66.5694 30.3688 67.2309 30.8781 67.4118 31.1934C67.9169 32.0697 67.9886 33.2096 67.9968 33.4004C67.9023 34.4902 67.2309 42.935 66.9767 49.3556C67.4216 49.464 67.8518 49.5998 68.2656 49.7534C68.4889 43.813 69.0983 35.9259 69.2645 33.8919C69.2857 33.6429 69.3215 33.3955 69.3753 33.1514L69.7012 31.6542C70.1427 31.8401 70.6528 31.9695 71.1791 32.1037C72.0362 32.3203 72.9242 32.5467 73.4244 33.001C73.9214 33.4505 74.0436 34.3091 74.0338 35.0512C74.0257 35.5751 73.9345 36.0925 73.7927 36.5969C73.1409 38.9074 72.5885 43.2908 72.0068 47.9166C71.8993 48.7752 71.7233 50.2708 71.5718 51.5141C72.0182 51.8278 72.4191 52.1399 72.771 52.4357C72.9372 51.1035 73.1702 49.1212 73.3006 48.0767C73.8872 43.425 75.0506 36.5791 75.1696 36.5323H75.1712C75.194 36.453 75.7594 34.5241 77.9201 34.3236C79.1421 34.2088 80.2225 34.9138 81.4739 35.7287C81.6124 35.8176 81.7525 35.9098 81.8926 36.0003C79.6522 37.4749 78.2492 42.0361 77.428 45.9748C76.5041 50.4017 74.0827 62.7352 72.9389 68.5802C71.228 65.5097 68.761 62.8872 68.0489 62.1612V57.8684C68.5166 57.1279 68.8327 56.3308 68.8327 55.4302C68.8327 53.1003 67.4265 51.671 66.1848 50.4098C65.8818 50.1026 65.5917 49.8067 65.3278 49.5092C65.0019 49.1454 64.7183 48.7784 64.5016 48.3839C64.2833 48.7784 63.9981 49.1454 63.6722 49.5108C63.4083 49.8083 63.1166 50.1026 62.8152 50.4098C61.5752 51.671 60.169 53.1003 60.169 55.4302C60.169 56.3308 60.4851 57.1279 60.9527 57.8684V62.1596C60.2439 62.8823 57.7737 65.5049 56.0628 68.5769C54.9173 62.7303 52.4959 50.4001 51.572 45.9748ZM56.8074 69.9513C57.9839 67.5923 59.7942 65.3707 60.9527 64.0675V65.6472C60.9527 69.0216 59.6817 70.7581 58.4369 72.0095C57.8828 72.5673 57.2506 73.0556 56.5793 73.5714C55.9731 74.0387 55.3588 74.5124 54.7755 75.0557C55.2252 73.6167 55.8852 71.8026 56.8074 69.9513ZM43.0533 96.9545C37.5931 97.5722 33.9382 96.0766 31.9324 92.3917C34.0344 92.8542 36.6741 92.8768 37.1531 92.8768H37.2232L37.6859 92.8736C37.655 92.8364 37.6257 92.7976 37.598 92.7588C37.3258 92.3869 37.0586 91.9908 36.7963 91.5801C35.672 91.5607 32.5679 91.4426 30.9906 90.7571C29.1298 89.947 27.8865 87.6802 27.4759 86.0569C29.4573 86.8766 32.4098 87.1725 33.8845 87.1725C34.0148 87.1725 34.1321 87.1709 34.2381 87.166L34.4026 87.1596C34.2006 86.7214 34.0099 86.2929 33.8323 85.879C32.242 85.8693 28.8772 85.4716 27.3504 84.5564C27.2526 84.4982 27.1614 84.4368 27.0799 84.3737C27.0294 84.3349 26.9789 84.2929 26.93 84.2492C25.576 83.0851 25.0513 80.9298 25.0203 79.3727C26.6742 80.6129 29.1151 81.3356 32.1817 81.4811L32.4017 81.4908C32.3153 81.0882 32.2257 80.6484 32.1393 80.1844C29.8712 80.0648 26.9121 79.549 25.2028 77.8157C25.1262 77.7413 25.0529 77.6621 24.9828 77.5796C24.9388 77.5295 24.8965 77.4762 24.8574 77.4228C24.1127 76.443 23.9449 75.0428 23.9612 73.6458C26.1919 74.9102 28.4161 75.3063 31.4843 75.5311C31.4452 75.0832 31.4159 74.6466 31.3996 74.2295C28.3541 73.995 26.2114 73.5698 24.0296 72.1728C23.927 72.1082 23.8259 72.0403 23.7233 71.9707C23.676 71.9384 23.6304 71.9061 23.5848 71.8705C22.1655 70.7969 21.4991 68.5494 21.882 66.0805C22.4784 62.2226 24.3995 59.377 26.0941 56.866C26.1348 56.8061 26.174 56.7479 26.2147 56.6881C26.1609 56.8514 26.1088 57.0163 26.055 57.1796C25.3869 59.2428 24.6961 61.377 24.6553 63.4304C24.6064 65.9317 26.2375 68.6448 29.9901 69.0668C33.2278 69.4306 35.7094 68.2713 38.3377 67.0425C40.4071 66.074 42.5433 65.0748 45.2449 64.7288C46.4051 65.9107 47.1742 67.0474 46.9232 69.6505C46.7701 71.2383 46.0059 73.0395 45.2661 74.7825C44.6893 76.1374 44.0929 77.5408 43.7686 78.8764C43.0664 81.7705 43.1837 86.2929 45.8331 89.5089C48.3311 92.5421 51.0262 93.5785 52.975 93.9326C50.5178 95.0515 46.4132 96.5746 43.0533 96.9545ZM64.3941 90.0586H64.5081C64.5407 90.057 64.575 90.057 64.6075 90.0586C64.9139 90.0699 65.2072 90.1605 65.3636 90.2381C65.4434 91.1953 65.8557 93.475 66.8969 94.8267C66.7519 96.0329 65.406 96.8187 64.5 96.8187C63.594 96.8187 62.2497 96.0329 62.1031 94.8267C63.1459 93.475 63.5582 91.1953 63.6364 90.2381C63.7928 90.1605 64.0861 90.0699 64.3941 90.0586ZM64.3631 99.5318C64.2556 99.4785 64.1415 99.4186 64.0128 99.3572C64.1741 99.3669 64.3371 99.3718 64.5 99.3718C64.6646 99.3718 64.8259 99.3669 64.9872 99.3572C64.8585 99.4186 64.7444 99.4785 64.6369 99.5318C64.588 99.5561 64.5424 99.5787 64.4984 99.5997C64.4544 99.5787 64.4087 99.5561 64.3615 99.5318H64.3631ZM39.9867 103.508C42.8252 102.951 45.3199 101.433 47.1709 100.308C47.896 99.8665 48.5217 99.4866 49.004 99.2634C55.2106 96.4097 61.6583 99.6288 63.7765 100.688C63.801 100.699 63.8254 100.712 63.8482 100.723V104.549C61.8359 103.467 59.6492 102.395 57.6254 102.196C53.8027 101.821 51.5068 102.269 48.1763 104.038C47.5571 104.366 46.9575 104.717 46.379 105.057C44.3748 106.23 42.4716 107.345 39.6592 107.678C39.8841 106.423 39.9655 104.842 39.9867 103.508ZM82.7334 108.045C82.5249 107.923 82.313 107.799 82.0963 107.674C81.6808 107.437 81.2865 107.194 80.9036 106.96C78.8994 105.733 77.0043 104.573 73.3104 104.573C70.8532 104.573 69.0429 105.429 67.7426 106.174C67.5177 106.302 67.2961 106.434 67.0761 106.565C66.1262 107.131 65.23 107.665 64.5 107.665C63.77 107.665 62.8738 107.131 61.9255 106.565C61.7055 106.434 61.4839 106.302 61.259 106.174C59.9571 105.429 58.1484 104.573 55.6912 104.573C51.9957 104.573 50.1023 105.733 48.0964 106.96C47.7151 107.194 47.3192 107.437 46.9053 107.674C46.6886 107.799 46.4768 107.923 46.2682 108.045C44.189 109.259 42.5123 110.239 38.8021 110.473C39.009 109.94 39.1981 109.383 39.317 109.013H39.3186C42.6802 108.725 44.8946 107.427 47.0422 106.171C47.6092 105.838 48.1958 105.495 48.7906 105.178C51.8963 103.529 53.9298 103.134 57.4967 103.483C59.4732 103.677 61.7788 104.897 63.8482 106.024C63.9427 106.074 64.0372 106.125 64.1317 106.177L64.5 106.378L64.8699 106.177C64.9628 106.127 65.0573 106.075 65.1518 106.024C67.2212 104.897 69.5252 103.679 71.505 103.483C75.0718 103.134 77.1053 103.529 80.2094 105.178C80.8058 105.495 81.3924 105.838 81.9594 106.171C84.1054 107.427 86.3198 108.725 89.683 109.013H89.6846C89.8036 109.383 89.9909 109.94 90.1979 110.473C86.4877 110.239 84.811 109.259 82.7334 108.045ZM79.9976 99.2634C80.4799 99.4866 81.1056 99.8665 81.8291 100.308C83.6818 101.433 86.1748 102.951 89.0133 103.508C89.0361 104.842 89.1176 106.423 89.3408 107.678C86.53 107.345 84.6268 106.23 82.621 105.057C82.0425 104.717 81.4445 104.366 80.8254 104.038C77.4931 102.269 75.1973 101.821 71.3762 102.196C69.3525 102.395 67.1641 103.467 65.1518 104.549V100.723C65.1762 100.712 65.199 100.699 65.2235 100.688C67.3417 99.6288 73.7894 96.4097 79.9976 99.2634ZM73.2664 93.011C70.7489 95.5091 68.2298 97.7662 65.1518 98.0492V98.0411C66.5938 97.7387 68.2135 96.4889 68.2135 94.6117V94.3659L68.0489 94.1816C67.0729 93.0902 66.6541 90.5906 66.6541 89.947V89.7854L66.5775 89.6415C66.4553 89.4151 66.2402 89.2389 65.986 89.1047C65.6911 88.9494 65.4369 88.8831 65.1599 88.8282C64.8291 88.7619 64.575 88.7586 64.5 88.7586C64.425 88.7586 64.1725 88.7619 63.8417 88.8282C63.5631 88.8831 63.3105 88.9511 63.0156 89.1047C62.7614 89.2372 62.5463 89.4135 62.4241 89.6415L62.3475 89.7854V89.947C62.3475 90.5906 61.9271 93.0902 60.9511 94.1816L60.7881 94.3659V94.6117C60.7881 96.4889 62.4078 97.7387 63.8482 98.0411V98.0475C60.7718 97.7646 58.2511 95.5074 55.7352 93.011L55.6342 92.9108L55.5446 92.8234C55.4973 92.8218 55.4175 92.8218 55.2741 92.8218C55.2138 92.8218 55.1486 92.8218 55.0786 92.8202C53.6724 92.8089 50.0827 92.6246 46.8418 88.6907C44.4954 85.8418 44.4025 81.7851 45.0363 79.1787C45.3362 77.9467 45.9114 76.5933 46.467 75.2837C47.2442 73.4534 48.0492 71.5584 48.2219 69.775C48.4565 67.3352 47.8602 65.8768 46.9786 64.732C48.028 64.9018 49.0187 65.3804 49.778 66.1112C50.7068 67.0053 51.1679 68.1582 51.075 69.3595C50.9903 70.4525 50.7378 71.4178 50.5357 72.1939C50.4803 72.404 50.4282 72.6013 50.3842 72.7872C49.8856 74.8487 49.6802 76.9895 53.063 78.5142C53.0679 78.5174 53.0727 78.5206 53.0793 78.5223L53.6414 78.7745L53.9266 78.2312C53.9266 78.2312 53.9331 78.2183 53.9363 78.2134C54.7934 76.5836 56.1084 75.5731 57.3794 74.5933C58.0539 74.0743 58.7513 73.5359 59.3656 72.9166C60.7116 71.5633 62.2563 69.5115 62.2563 65.6472V59.5467C62.3508 59.6551 62.4469 59.7634 62.543 59.8717C62.9748 60.36 63.3969 60.8354 63.7342 61.3091C64.1709 61.9219 64.469 62.5298 64.469 63.154C64.469 63.2219 64.4804 63.2882 64.5 63.3512C64.5195 63.2882 64.531 63.2219 64.531 63.154C64.531 62.5315 64.8291 61.9235 65.2675 61.3107C65.6031 60.837 66.0268 60.36 66.4586 59.8717C66.5547 59.7634 66.6509 59.6551 66.7454 59.5467V65.6472C66.7454 69.5115 68.2901 71.5633 69.636 72.9166C70.2503 73.5359 70.9477 74.0743 71.6223 74.5933C72.8932 75.5731 74.2082 76.5836 75.0653 78.2134C75.0685 78.2183 75.0718 78.2248 75.0751 78.2312L75.3602 78.7745L75.8849 78.5384C75.9093 78.5287 75.9321 78.519 75.9533 78.5077C79.3197 76.983 79.1161 74.8455 78.6175 72.7872C78.5735 72.6013 78.5213 72.404 78.4659 72.1939C78.2639 71.4178 78.0113 70.4525 77.9266 69.3595C77.8337 68.1582 78.2948 67.0053 79.2236 66.1112C79.9829 65.3804 80.9736 64.9018 82.023 64.732C81.1415 65.8768 80.5451 67.3352 80.7797 69.775C80.9524 71.5584 81.7574 73.4534 82.5346 75.2837C83.0903 76.5933 83.6655 77.9467 83.9653 79.1787C84.5991 81.7851 84.5063 85.8418 82.1599 88.6907C78.9189 92.6246 75.3293 92.8089 73.923 92.8202C73.853 92.8218 73.7878 92.8218 73.7275 92.8218C73.5841 92.8218 73.5043 92.8218 73.457 92.8234L73.3674 92.9108L73.2664 93.011ZM102.072 84.2492C102.023 84.2929 101.972 84.3349 101.922 84.3737C101.84 84.4368 101.749 84.4982 101.651 84.5564C100.124 85.4716 96.7596 85.8693 95.1693 85.879C94.9917 86.2929 94.8011 86.7214 94.599 87.1596L94.7636 87.166C94.8695 87.1709 94.9868 87.1725 95.1172 87.1725C96.5918 87.1725 99.5444 86.8766 101.526 86.0569C101.115 87.6802 99.8719 89.947 98.011 90.7571C96.4338 91.4426 93.3297 91.5607 92.2054 91.5801C91.943 91.9908 91.6758 92.3869 91.4037 92.7588C91.376 92.7976 91.3466 92.8364 91.3157 92.8736L91.7784 92.8768H91.8485C92.3276 92.8768 94.9673 92.8542 97.0676 92.3917C95.0634 96.0766 91.4086 97.5722 85.9483 96.9545C82.5884 96.5746 78.4838 95.0515 76.0267 93.9326C77.9755 93.5785 80.6706 92.5421 83.1685 89.5089C85.818 86.2929 85.9353 81.7705 85.233 78.8764C84.9087 77.5408 84.3124 76.1374 83.7355 74.7825C82.9958 73.0395 82.2316 71.2383 82.0784 69.6505C81.8275 67.0474 82.5966 65.9107 83.7567 64.7288C86.4583 65.0748 88.5945 66.074 90.6639 67.0425C93.2922 68.2713 95.7738 69.4306 99.0115 69.0668C102.764 68.6448 104.395 65.9317 104.346 63.4304C104.306 61.377 103.615 59.2428 102.947 57.1796C102.893 57.0163 102.841 56.8514 102.787 56.6881C102.828 56.7479 102.867 56.8061 102.908 56.866C104.602 59.377 106.523 62.2226 107.12 66.0805C107.503 68.5494 106.836 70.7969 105.417 71.8705C105.371 71.9061 105.326 71.9384 105.278 71.9707C105.176 72.0403 105.075 72.1082 104.972 72.1728C102.79 73.5698 100.647 73.995 97.6021 74.2295C97.5858 74.6466 97.5564 75.0832 97.5173 75.5311C100.586 75.3063 102.81 74.9102 105.04 73.6458C105.057 75.0428 104.889 76.443 104.144 77.4228C104.105 77.4762 104.063 77.5295 104.019 77.5796C103.949 77.6621 103.875 77.7413 103.799 77.8157C102.09 79.549 99.1305 80.0648 96.8623 80.1844C96.7759 80.6484 96.6863 81.0882 96.6 81.4908L96.8199 81.4811C99.8865 81.3356 102.327 80.6129 103.981 79.3727C103.95 80.9298 103.426 83.0851 102.072 84.2492Z" fill="black"/>
<path d="M69.2563 76.9022C69.0021 76.5287 68.7219 76.1326 68.4253 75.7122L68.1679 75.3468C66.672 73.219 66.2565 72.3539 65.7318 70.425C65.7107 70.349 65.6911 70.273 65.6699 70.197L65.4353 69.0782C65.3489 68.5672 65.3049 68.467 65.1029 67.9431C64.9171 67.4613 64.6075 67.0345 64.4984 66.0627C64.3892 67.0345 64.0796 67.4613 63.8938 67.9431C63.6918 68.467 63.6478 68.5672 63.5614 69.0782L63.3268 70.197C63.3056 70.273 63.2844 70.3506 63.2649 70.425C62.7402 72.3539 62.3263 73.219 60.8289 75.3468L60.5714 75.7122C60.2749 76.1326 59.9946 76.5287 59.7404 76.9022C58.3766 78.9055 57.7704 80.8942 58.0099 83.0269C58.3489 86.0633 61.4758 87.7336 61.6012 87.7999H61.6045L61.6126 87.7902C61.6208 87.7788 61.6338 87.7627 61.6517 87.74C63.1036 85.9259 65.8964 85.9259 67.3466 87.74C67.3645 87.7627 67.3776 87.7788 67.3857 87.7902L67.3939 87.8015H67.3971C67.5226 87.7336 70.6495 86.0633 70.9884 83.0269C71.2279 80.8942 70.6218 78.9071 69.258 76.9022H69.2563Z" fill="#FAD407"/>
<path d="M68.9597 74.9474C68.1694 73.7493 67.6268 73.2529 66.8072 71.6748C65.7513 69.6376 65.3716 67.9868 65.238 67.3335C65.0164 66.2438 64.9464 65.3011 64.9301 64.5994C64.3956 65.2284 63.5662 66.3796 63.1377 68.0256C62.877 69.0264 62.8427 69.9108 62.8721 70.564C62.8102 70.5091 62.7287 70.4476 62.6211 70.3927C62.4191 70.2892 62.2285 70.2682 62.1144 70.2633C62.1616 71.6619 61.8472 72.6789 61.5995 73.2804C61.3469 73.8964 61.0569 74.3621 60.6756 74.9393C60.2943 75.5149 59.4633 76.5109 59.1325 76.9959C57.7687 79.0009 57.0876 80.6986 57.3564 83.0948C57.7361 86.495 61.153 88.2962 61.298 88.3722L61.7966 88.6261C63.2126 86.4093 65.7839 86.4158 67.1934 88.6261L67.692 88.3722C67.8386 88.2962 71.2539 86.495 71.6352 83.0948C71.9986 79.8481 70.0775 76.6467 68.958 74.9458L68.9597 74.9474ZM70.3414 82.9525C70.1084 85.0366 68.347 86.4239 67.5192 86.9672C65.9224 85.3374 63.2892 85.1498 61.474 86.9672C60.6463 86.4239 58.8865 85.0366 58.6535 82.9525C58.4286 80.9459 58.8734 79.7268 59.9798 77.8982C60.2959 77.3743 61.052 76.4058 61.6239 75.4551C62.3262 74.2861 62.5348 73.7089 63.0073 72.7953C63.3055 74.3427 64.1919 76.0533 64.6677 78.3816C65.2576 81.2758 63.1507 82.8991 63.7878 83.8078C64.1756 82.5968 66.0446 80.629 65.7855 78C65.6193 76.3007 64.3565 74.2262 64.0029 72.3232C63.607 70.197 64.0078 68.7321 64.3646 68.1339C64.7003 70.3086 66.4552 73.3984 67.9706 75.5505C69.8607 78.2377 70.6331 80.3687 70.3447 82.9509L70.3414 82.9525Z" fill="black"/>
<path d="M25.2794 42.4096L31.4224 45.0451L30.8912 46.2642L24.7482 43.6287L24.1029 45.1113L22.9656 44.6231L24.7857 40.4483L25.923 40.9366L25.281 42.4096H25.2794Z" fill="black"/>
<path d="M33.7656 41.0045C33.4544 41.5025 33.1171 41.842 32.7554 42.0247C32.3936 42.2074 31.9798 42.243 31.5154 42.1363C31.051 42.028 30.4953 41.7757 29.8517 41.3796L25.6543 38.7958L26.3598 37.6673L30.6632 40.3157C30.9418 40.4871 31.1976 40.6164 31.4306 40.7037C31.6636 40.7911 31.8836 40.8137 32.0906 40.7733C32.2991 40.7328 32.4735 40.5986 32.6152 40.3707C32.7358 40.1783 32.7945 39.9988 32.7928 39.8323C32.7912 39.6657 32.7097 39.4911 32.5484 39.3052C32.3887 39.1208 32.1264 38.9171 31.7647 38.694L27.3961 36.0067L28.1017 34.8782L32.5387 37.6091C33.3664 38.1184 33.8781 38.6503 34.0736 39.2065C34.2691 39.7627 34.1665 40.3626 33.764 41.0061L33.7656 41.0045Z" fill="black"/>
<path d="M32.0628 31.9226L37.1759 36.2073L36.3123 37.2227L31.1992 32.938L30.1498 34.1716L29.2031 33.3778L32.1605 29.9015L33.1072 30.6938L32.0628 31.921V31.9226Z" fill="black"/>
<path d="M44.3079 29.9726L39.9166 26.0113L42.2874 31.4149L41.1337 32.2379L35.3867 26.6451L36.4817 25.8642L40.3467 29.7446L38.0606 24.7356L39.3071 23.8447L43.3286 27.5813L40.8991 22.7097L41.9745 21.9417L45.4615 29.148L44.3079 29.971V29.9726Z" fill="black"/>
<path d="M49.3917 27.321C48.8557 27.5667 48.3864 27.667 47.9823 27.6217C47.5782 27.5764 47.2132 27.3808 46.8857 27.0364C46.5565 26.692 46.2339 26.1794 45.9161 25.4971L43.8435 21.0475L45.0591 20.4897L47.1838 25.0509C47.3224 25.3468 47.4641 25.5941 47.6091 25.793C47.7558 25.9919 47.9252 26.1309 48.1224 26.2118C48.3179 26.291 48.5395 26.2748 48.784 26.1633C48.9909 26.0679 49.1392 25.9515 49.2304 25.8108C49.32 25.6701 49.351 25.4793 49.3184 25.2384C49.2875 24.9959 49.1815 24.6838 49.0039 24.3006L46.8466 19.6716L48.0621 19.1137L50.2521 23.8156C50.6611 24.6919 50.7931 25.4163 50.648 25.987C50.503 26.5578 50.0842 27.0024 49.3917 27.321Z" fill="black"/>
<path d="M55.31 19.2205C55.4534 19.7233 55.4648 20.1793 55.3442 20.5867C55.2236 20.9942 54.9629 21.3434 54.5621 21.6344C54.681 21.6425 54.7983 21.67 54.914 21.7169C55.0297 21.7638 55.1731 21.8656 55.3458 22.0192C55.5185 22.1745 55.719 22.4024 55.9487 22.7064L57.3826 24.4914L55.9275 24.8989L54.6272 23.3047C54.3176 22.9344 54.083 22.6708 53.9233 22.5172C53.762 22.3636 53.6333 22.2731 53.5322 22.244C53.4329 22.2165 53.3123 22.223 53.1689 22.2618L52.8772 22.3442L53.7767 25.5004L52.4894 25.8625L50.332 18.2891L52.5236 17.6747C53.2748 17.4645 53.8761 17.4936 54.3307 17.7653C54.7853 18.0353 55.1112 18.5203 55.31 19.2205ZM54.0178 19.6554C53.9184 19.3045 53.7539 19.0782 53.5241 18.9763C53.2944 18.8744 52.9962 18.8761 52.6295 18.9795L51.9712 19.1639L52.5513 21.1995L53.1021 21.0443C53.5225 20.9262 53.8044 20.7516 53.9494 20.522C54.0944 20.2924 54.1172 20.003 54.0178 19.6554Z" fill="black"/>
<path d="M58.0915 24.4704L56.845 16.6981L58.1665 16.4896L59.413 24.2618L58.0915 24.4704Z" fill="black"/>
<path d="M66.6916 23.9676L66.8073 20.4848L64.8536 20.4218L64.7379 23.9045L63.4001 23.8609L63.6608 15.9948L64.9986 16.0385L64.8959 19.1509L66.8496 19.214L66.9523 16.1015L68.2901 16.1452L68.0294 24.0112L66.6916 23.9676Z" fill="black"/>
<path d="M70.6235 22.8342L70.0043 24.3023L68.6421 24.0452L72.1128 16.6884L73.5419 16.9585L74.0258 25.0622L72.6587 24.8035L72.631 23.2141L70.6252 22.8358L70.6235 22.8342ZM72.5512 18.2584L71.1368 21.6199L72.6131 21.898L72.5512 18.2584Z" fill="black"/>
<path d="M77.7537 26.3767L77.4605 20.7953L77.4507 20.7921L75.7561 25.6637L74.6057 25.253L77.291 17.8477L78.5782 18.3069L78.7998 23.6523L78.808 23.6555L80.4994 18.9925L81.6726 19.4113L78.9872 26.8165L77.7554 26.3767H77.7537Z" fill="black"/>
<path d="M86.3623 26.0048C85.8702 26.8844 85.4107 27.5489 84.9805 28C84.5504 28.4511 84.1072 28.7131 83.6493 28.7874C83.1914 28.8618 82.683 28.7438 82.1241 28.4366L80.0613 27.3015L83.9067 20.4185L85.8816 21.5051C86.4519 21.8188 86.8348 22.1923 87.0304 22.6272C87.2259 23.0621 87.2634 23.5553 87.1428 24.1066C87.0222 24.658 86.7615 25.2902 86.3639 26.0048H86.3623ZM81.8373 26.8618L82.4777 27.2142C82.859 27.4244 83.1947 27.4794 83.4831 27.3808C83.7715 27.2821 84.0257 27.0865 84.244 26.7955C84.464 26.5044 84.7263 26.084 85.0343 25.5327C85.4091 24.8633 85.647 24.3394 85.7513 23.9627C85.8555 23.586 85.8474 23.2885 85.7301 23.0702C85.6111 22.8519 85.3765 22.6466 85.0262 22.4526L84.4705 22.147L81.8373 26.8618Z" fill="black"/>
<path d="M86.794 29.5393L85.5736 30.5709L84.4753 29.7317L90.9181 24.7227L92.0701 25.6038L88.8161 33.0511L87.7146 32.2087L88.4137 30.7778L86.7956 29.5409L86.794 29.5393ZM90.5955 26.3185L87.8043 28.684L88.9937 29.5943L90.5955 26.3185Z" fill="black"/>
<path d="M93.5741 31.1901L94.1232 30.9298L96.6603 29.7738L97.7455 30.8522L93.0282 32.6291L90.6737 34.9623L89.7351 34.0293L92.0897 31.6962L93.8853 27.0154L94.9868 28.1116L93.8332 30.6517L93.5741 31.1917V31.1901Z" fill="black"/>
<path d="M93.9504 36.2833L92.5035 36.9688L91.6594 35.8774L99.1825 32.6793L100.067 33.824L94.9949 40.1912L94.1476 39.095L95.1937 37.8888L93.9504 36.2816V36.2833ZM98.4574 34.1409L95.1464 35.7157L96.0605 36.8977L98.4558 34.1409H98.4574Z" fill="black"/>
<path d="M96.9014 43.6351L100.421 39.2696L100.416 39.2615L95.8863 41.7838L95.3013 40.7183L102.267 36.9559L102.921 38.1475L99.5053 42.2867L99.5101 42.2948L103.897 39.9261L104.493 41.0126L97.5271 44.775L96.9014 43.6335V43.6351Z" fill="black"/>
<path d="M97.9736 45.9424L105.337 43.0159L105.834 44.2495L98.4705 47.1761L97.9736 45.9424Z" fill="black"/>
<path d="M463.463 86.6364V97H460.065V73.7273H463.418V82.3864H463.634C464.043 81.447 464.668 80.7008 465.509 80.1477C466.35 79.5947 467.448 79.3182 468.804 79.3182C470.001 79.3182 471.046 79.5644 471.94 80.0568C472.842 80.5492 473.539 81.2841 474.031 82.2614C474.531 83.2311 474.781 84.4432 474.781 85.8977V97H471.384V86.3068C471.384 85.0265 471.054 84.0341 470.395 83.3295C469.736 82.6174 468.819 82.2614 467.645 82.2614C466.842 82.2614 466.122 82.4318 465.486 82.7727C464.857 83.1136 464.361 83.6136 463.997 84.2727C463.641 84.9242 463.463 85.7121 463.463 86.6364Z" fill="#334155"/>
<path d="M446.926 97.3864C445.82 97.3864 444.82 97.1818 443.926 96.7727C443.032 96.3561 442.324 95.7538 441.801 94.9659C441.286 94.178 441.028 93.2121 441.028 92.0682C441.028 91.0833 441.218 90.2727 441.596 89.6364C441.975 89 442.487 88.4962 443.131 88.125C443.775 87.7538 444.494 87.4735 445.29 87.2841C446.085 87.0947 446.896 86.9507 447.721 86.8523C448.767 86.7311 449.615 86.6326 450.267 86.5568C450.918 86.4735 451.392 86.3409 451.687 86.1591C451.983 85.9773 452.131 85.6818 452.131 85.2727V85.1932C452.131 84.2007 451.85 83.4318 451.29 82.8864C450.737 82.3409 449.911 82.0682 448.812 82.0682C447.668 82.0682 446.767 82.322 446.108 82.8295C445.456 83.3295 445.006 83.8864 444.756 84.5L441.562 83.7727C441.941 82.7121 442.494 81.8561 443.221 81.2045C443.956 80.5454 444.801 80.0682 445.756 79.7727C446.71 79.4697 447.714 79.3182 448.767 79.3182C449.464 79.3182 450.203 79.4015 450.983 79.5682C451.771 79.7273 452.506 80.0227 453.187 80.4545C453.877 80.8864 454.441 81.5038 454.881 82.3068C455.32 83.1023 455.54 84.1364 455.54 85.4091V97H452.221V94.6136H452.085C451.865 95.053 451.536 95.4848 451.096 95.9091C450.657 96.3333 450.093 96.6856 449.403 96.9659C448.714 97.2462 447.888 97.3864 446.926 97.3864ZM447.665 94.6591C448.604 94.6591 449.407 94.4735 450.074 94.1023C450.748 93.7311 451.259 93.2462 451.608 92.6477C451.964 92.0417 452.142 91.3939 452.142 90.7045V88.4545C452.021 88.5757 451.786 88.6894 451.437 88.7954C451.096 88.8939 450.706 88.9811 450.267 89.0568C449.828 89.125 449.4 89.1894 448.983 89.25C448.566 89.303 448.218 89.3485 447.937 89.3864C447.278 89.4697 446.676 89.6098 446.131 89.8068C445.593 90.0038 445.161 90.2879 444.835 90.6591C444.517 91.0227 444.358 91.5076 444.358 92.1136C444.358 92.9545 444.668 93.5909 445.29 94.0227C445.911 94.447 446.703 94.6591 447.665 94.6591Z" fill="#334155"/>
<path d="M429.415 103.909C428.029 103.909 426.835 103.727 425.835 103.364C424.843 103 424.032 102.519 423.404 101.92C422.775 101.322 422.305 100.667 421.995 99.9545L424.915 98.75C425.12 99.0833 425.392 99.4356 425.733 99.8068C426.082 100.186 426.551 100.508 427.142 100.773C427.741 101.038 428.51 101.17 429.449 101.17C430.737 101.17 431.801 100.856 432.642 100.227C433.483 99.6061 433.904 98.6136 433.904 97.25V93.8182H433.688C433.483 94.1894 433.188 94.6023 432.801 95.0568C432.423 95.5114 431.9 95.9053 431.233 96.2386C430.566 96.572 429.699 96.7386 428.631 96.7386C427.252 96.7386 426.01 96.4167 424.904 95.7727C423.805 95.1212 422.934 94.1629 422.29 92.8977C421.654 91.625 421.335 90.0606 421.335 88.2045C421.335 86.3485 421.65 84.7576 422.279 83.4318C422.915 82.1061 423.786 81.0909 424.892 80.3864C425.998 79.6742 427.252 79.3182 428.654 79.3182C429.737 79.3182 430.612 79.5 431.279 79.8636C431.945 80.2197 432.464 80.6364 432.835 81.1136C433.214 81.5909 433.506 82.0114 433.71 82.375H433.96V79.5454H437.29V97.3864C437.29 98.8864 436.942 100.117 436.245 101.08C435.548 102.042 434.604 102.754 433.415 103.216C432.233 103.678 430.9 103.909 429.415 103.909ZM429.381 93.9204C430.358 93.9204 431.184 93.6932 431.858 93.2386C432.54 92.7765 433.055 92.1174 433.404 91.2614C433.76 90.3977 433.938 89.3636 433.938 88.1591C433.938 86.9848 433.763 85.9507 433.415 85.0568C433.066 84.1629 432.555 83.4659 431.881 82.9659C431.207 82.4583 430.373 82.2045 429.381 82.2045C428.358 82.2045 427.506 82.4697 426.824 83C426.142 83.5227 425.627 84.2348 425.279 85.1364C424.938 86.0379 424.767 87.0454 424.767 88.1591C424.767 89.303 424.941 90.3068 425.29 91.1704C425.638 92.0341 426.154 92.7083 426.835 93.1932C427.525 93.678 428.373 93.9204 429.381 93.9204Z" fill="#334155"/>
<path d="M406.369 86.6364V97H402.972V79.5454H406.233V82.3864H406.449C406.85 81.4621 407.479 80.7197 408.335 80.1591C409.199 79.5985 410.286 79.3182 411.597 79.3182C412.786 79.3182 413.828 79.5682 414.722 80.0682C415.616 80.5606 416.309 81.2954 416.801 82.2727C417.294 83.25 417.54 84.4583 417.54 85.8977V97H414.142V86.3068C414.142 85.0417 413.813 84.053 413.154 83.3409C412.494 82.6212 411.589 82.2614 410.438 82.2614C409.65 82.2614 408.949 82.4318 408.335 82.7727C407.729 83.1136 407.248 83.6136 406.892 84.2727C406.544 84.9242 406.369 85.7121 406.369 86.6364Z" fill="#334155"/>
<path d="M391.713 97.3523C389.993 97.3523 388.512 96.9848 387.27 96.25C386.035 95.5076 385.08 94.4659 384.406 93.125C383.74 91.7765 383.406 90.197 383.406 88.3864C383.406 86.5985 383.74 85.0227 384.406 83.6591C385.08 82.2954 386.02 81.2311 387.224 80.4659C388.437 79.7007 389.853 79.3182 391.474 79.3182C392.459 79.3182 393.414 79.4811 394.338 79.8068C395.262 80.1326 396.092 80.6439 396.827 81.3409C397.562 82.0379 398.141 82.9432 398.565 84.0568C398.99 85.1629 399.202 86.5076 399.202 88.0909V89.2954H385.327V86.75H395.872C395.872 85.8561 395.69 85.0644 395.327 84.375C394.963 83.678 394.452 83.1288 393.793 82.7273C393.141 82.3257 392.376 82.125 391.497 82.125C390.543 82.125 389.709 82.3598 388.997 82.8295C388.293 83.2917 387.747 83.8977 387.361 84.6477C386.982 85.3901 386.793 86.197 386.793 87.0682V89.0568C386.793 90.2235 386.997 91.2159 387.406 92.0341C387.823 92.8523 388.402 93.4773 389.145 93.9091C389.887 94.3333 390.755 94.5454 391.747 94.5454C392.391 94.5454 392.978 94.4545 393.509 94.2727C394.039 94.0833 394.497 93.803 394.884 93.4318C395.27 93.0606 395.565 92.6023 395.77 92.0568L398.986 92.6364C398.728 93.5833 398.266 94.4129 397.599 95.125C396.94 95.8295 396.111 96.3788 395.111 96.7727C394.118 97.1591 392.986 97.3523 391.713 97.3523Z" fill="#334155"/>
<path d="M368.463 86.6364V97H365.065V79.5454H368.327V82.3864H368.543C368.944 81.4621 369.573 80.7197 370.429 80.1591C371.293 79.5985 372.38 79.3182 373.69 79.3182C374.88 79.3182 375.921 79.5682 376.815 80.0682C377.709 80.5606 378.403 81.2954 378.895 82.2727C379.387 83.25 379.634 84.4583 379.634 85.8977V97H376.236V86.3068C376.236 85.0417 375.906 84.053 375.247 83.3409C374.588 82.6212 373.683 82.2614 372.531 82.2614C371.743 82.2614 371.043 82.4318 370.429 82.7727C369.823 83.1136 369.342 83.6136 368.986 84.2727C368.637 84.9242 368.463 85.7121 368.463 86.6364Z" fill="#334155"/>
<path d="M353.807 97.3523C352.087 97.3523 350.606 96.9848 349.364 96.25C348.129 95.5076 347.174 94.4659 346.5 93.125C345.833 91.7765 345.5 90.197 345.5 88.3864C345.5 86.5985 345.833 85.0227 346.5 83.6591C347.174 82.2954 348.114 81.2311 349.318 80.4659C350.53 79.7007 351.947 79.3182 353.568 79.3182C354.553 79.3182 355.508 79.4811 356.432 79.8068C357.356 80.1326 358.186 80.6439 358.92 81.3409C359.655 82.0379 360.235 82.9432 360.659 84.0568C361.083 85.1629 361.295 86.5076 361.295 88.0909V89.2954H347.42V86.75H357.966C357.966 85.8561 357.784 85.0644 357.42 84.375C357.057 83.678 356.545 83.1288 355.886 82.7273C355.235 82.3257 354.47 82.125 353.591 82.125C352.636 82.125 351.803 82.3598 351.091 82.8295C350.386 83.2917 349.841 83.8977 349.455 84.6477C349.076 85.3901 348.886 86.197 348.886 87.0682V89.0568C348.886 90.2235 349.091 91.2159 349.5 92.0341C349.917 92.8523 350.496 93.4773 351.239 93.9091C351.981 94.3333 352.848 94.5454 353.841 94.5454C354.485 94.5454 355.072 94.4545 355.602 94.2727C356.133 94.0833 356.591 93.803 356.977 93.4318C357.364 93.0606 357.659 92.6023 357.864 92.0568L361.08 92.6364C360.822 93.5833 360.36 94.4129 359.693 95.125C359.034 95.8295 358.205 96.3788 357.205 96.7727C356.212 97.1591 355.08 97.3523 353.807 97.3523Z" fill="#334155"/>
<path d="M317.838 73.7273H322.099L329.508 91.8182H329.781L337.19 73.7273H341.452V97H338.111V80.1591H337.895L331.031 96.9659H328.258L321.395 80.1477H321.179V97H317.838V73.7273Z" fill="#334155"/>
<path d="M293.369 86.6364V97H289.972V79.5454H293.233V82.3864H293.449C293.85 81.4621 294.479 80.7197 295.335 80.1591C296.199 79.5985 297.286 79.3182 298.597 79.3182C299.786 79.3182 300.828 79.5682 301.722 80.0682C302.616 80.5606 303.309 81.2954 303.801 82.2727C304.294 83.25 304.54 84.4583 304.54 85.8977V97H301.142V86.3068C301.142 85.0417 300.813 84.053 300.154 83.3409C299.494 82.6212 298.589 82.2614 297.438 82.2614C296.65 82.2614 295.949 82.4318 295.335 82.7727C294.729 83.1136 294.248 83.6136 293.892 84.2727C293.544 84.9242 293.369 85.7121 293.369 86.6364Z" fill="#334155"/>
<path d="M276.832 97.3864C275.726 97.3864 274.726 97.1818 273.832 96.7727C272.938 96.3561 272.23 95.7538 271.707 94.9659C271.192 94.178 270.935 93.2121 270.935 92.0682C270.935 91.0833 271.124 90.2727 271.503 89.6364C271.882 89 272.393 88.4962 273.037 88.125C273.681 87.7538 274.4 87.4735 275.196 87.2841C275.991 87.0947 276.802 86.9507 277.628 86.8523C278.673 86.7311 279.522 86.6326 280.173 86.5568C280.825 86.4735 281.298 86.3409 281.594 86.1591C281.889 85.9773 282.037 85.6818 282.037 85.2727V85.1932C282.037 84.2007 281.757 83.4318 281.196 82.8864C280.643 82.3409 279.817 82.0682 278.719 82.0682C277.575 82.0682 276.673 82.322 276.014 82.8295C275.363 83.3295 274.912 83.8864 274.662 84.5L271.469 83.7727C271.847 82.7121 272.4 81.8561 273.128 81.2045C273.863 80.5454 274.707 80.0682 275.662 79.7727C276.616 79.4697 277.62 79.3182 278.673 79.3182C279.37 79.3182 280.109 79.4015 280.889 79.5682C281.677 79.7273 282.412 80.0227 283.094 80.4545C283.783 80.8864 284.347 81.5038 284.787 82.3068C285.226 83.1023 285.446 84.1364 285.446 85.4091V97H282.128V94.6136H281.991C281.772 95.053 281.442 95.4848 281.003 95.9091C280.563 96.3333 279.999 96.6856 279.31 96.9659C278.62 97.2462 277.794 97.3864 276.832 97.3864ZM277.571 94.6591C278.51 94.6591 279.313 94.4735 279.98 94.1023C280.654 93.7311 281.166 93.2462 281.514 92.6477C281.87 92.0417 282.048 91.3939 282.048 90.7045V88.4545C281.927 88.5757 281.692 88.6894 281.344 88.7954C281.003 88.8939 280.613 88.9811 280.173 89.0568C279.734 89.125 279.306 89.1894 278.889 89.25C278.472 89.303 278.124 89.3485 277.844 89.3864C277.185 89.4697 276.582 89.6098 276.037 89.8068C275.499 90.0038 275.067 90.2879 274.741 90.6591C274.423 91.0227 274.264 91.5076 274.264 92.1136C274.264 92.9545 274.575 93.5909 275.196 94.0227C275.817 94.447 276.609 94.6591 277.571 94.6591Z" fill="#334155"/>
<path d="M258.256 97.3409C256.847 97.3409 255.589 96.981 254.483 96.2614C253.385 95.5341 252.521 94.5 251.892 93.1591C251.271 91.8106 250.96 90.1932 250.96 88.3068C250.96 86.4204 251.275 84.8068 251.904 83.4659C252.54 82.125 253.411 81.0985 254.517 80.3864C255.623 79.6742 256.877 79.3182 258.279 79.3182C259.362 79.3182 260.233 79.5 260.892 79.8636C261.559 80.2197 262.074 80.6364 262.438 81.1136C262.809 81.5909 263.097 82.0114 263.301 82.375H263.506V73.7273H266.904V97H263.585V94.2841H263.301C263.097 94.6553 262.801 95.0795 262.415 95.5568C262.036 96.0341 261.513 96.4507 260.847 96.8068C260.18 97.1629 259.317 97.3409 258.256 97.3409ZM259.006 94.4432C259.983 94.4432 260.809 94.1856 261.483 93.6704C262.165 93.1477 262.68 92.4242 263.029 91.5C263.385 90.5757 263.563 89.5 263.563 88.2727C263.563 87.0606 263.388 86 263.04 85.0909C262.692 84.1818 262.18 83.4735 261.506 82.9659C260.832 82.4583 259.998 82.2045 259.006 82.2045C257.983 82.2045 257.131 82.4697 256.449 83C255.767 83.5303 255.252 84.2538 254.904 85.1704C254.563 86.0871 254.392 87.1212 254.392 88.2727C254.392 89.4394 254.567 90.4886 254.915 91.4204C255.263 92.3523 255.779 93.0909 256.46 93.6364C257.15 94.1742 257.998 94.4432 259.006 94.4432Z" fill="#334155"/>
<path d="M230.972 97V79.5454H234.256V82.3181H234.438C234.756 81.3788 235.316 80.6401 236.119 80.1022C236.93 79.5568 237.847 79.2841 238.869 79.2841C239.082 79.2841 239.332 79.2916 239.619 79.3068C239.915 79.3219 240.146 79.3409 240.313 79.3636V82.6136C240.176 82.5757 239.934 82.5341 239.585 82.4886C239.237 82.4356 238.888 82.4091 238.54 82.4091C237.737 82.4091 237.021 82.5795 236.392 82.9204C235.771 83.2538 235.278 83.7197 234.915 84.3181C234.551 84.9091 234.369 85.5833 234.369 86.3409V97H230.972Z" fill="#334155"/>
<path d="M217.832 97.3864C216.726 97.3864 215.726 97.1818 214.832 96.7727C213.938 96.3561 213.23 95.7538 212.707 94.9659C212.192 94.178 211.935 93.2121 211.935 92.0682C211.935 91.0833 212.124 90.2727 212.503 89.6364C212.882 89 213.393 88.4962 214.037 88.125C214.681 87.7538 215.4 87.4735 216.196 87.2841C216.991 87.0947 217.802 86.9507 218.628 86.8523C219.673 86.7311 220.522 86.6326 221.173 86.5568C221.825 86.4735 222.298 86.3409 222.594 86.1591C222.889 85.9773 223.037 85.6818 223.037 85.2727V85.1932C223.037 84.2007 222.757 83.4318 222.196 82.8864C221.643 82.3409 220.817 82.0682 219.719 82.0682C218.575 82.0682 217.673 82.322 217.014 82.8295C216.363 83.3295 215.912 83.8864 215.662 84.5L212.469 83.7727C212.847 82.7121 213.4 81.8561 214.128 81.2045C214.863 80.5454 215.707 80.0682 216.662 79.7727C217.616 79.4697 218.62 79.3182 219.673 79.3182C220.37 79.3182 221.109 79.4015 221.889 79.5682C222.677 79.7273 223.412 80.0227 224.094 80.4545C224.783 80.8864 225.347 81.5038 225.787 82.3068C226.226 83.1023 226.446 84.1364 226.446 85.4091V97H223.128V94.6136H222.991C222.772 95.053 222.442 95.4848 222.003 95.9091C221.563 96.3333 220.999 96.6856 220.31 96.9659C219.62 97.2462 218.794 97.3864 217.832 97.3864ZM218.571 94.6591C219.51 94.6591 220.313 94.4735 220.98 94.1023C221.654 93.7311 222.166 93.2462 222.514 92.6477C222.87 92.0417 223.048 91.3939 223.048 90.7045V88.4545C222.927 88.5757 222.692 88.6894 222.344 88.7954C222.003 88.8939 221.613 88.9811 221.173 89.0568C220.734 89.125 220.306 89.1894 219.889 89.25C219.472 89.303 219.124 89.3485 218.844 89.3864C218.185 89.4697 217.582 89.6098 217.037 89.8068C216.499 90.0038 216.067 90.2879 215.741 90.6591C215.423 91.0227 215.264 91.5076 215.264 92.1136C215.264 92.9545 215.575 93.5909 216.196 94.0227C216.817 94.447 217.609 94.6591 218.571 94.6591Z" fill="#334155"/>
<path d="M208.676 83.8068L205.596 84.3523C205.468 83.9583 205.263 83.5833 204.983 83.2273C204.71 82.8712 204.339 82.5795 203.869 82.3523C203.399 82.125 202.812 82.0114 202.108 82.0114C201.146 82.0114 200.343 82.2273 199.699 82.6591C199.055 83.0833 198.733 83.6326 198.733 84.3068C198.733 84.8901 198.949 85.3598 199.381 85.7159C199.812 86.072 200.509 86.3636 201.471 86.5909L204.244 87.2273C205.85 87.5985 207.047 88.1704 207.835 88.9432C208.623 89.7159 209.017 90.7197 209.017 91.9545C209.017 93 208.714 93.9318 208.108 94.75C207.509 95.5606 206.672 96.197 205.596 96.6591C204.528 97.1212 203.29 97.3523 201.881 97.3523C199.926 97.3523 198.331 96.9356 197.096 96.1023C195.862 95.2614 195.104 94.0682 194.824 92.5227L198.108 92.0227C198.312 92.8788 198.733 93.5265 199.369 93.9659C200.006 94.3977 200.835 94.6136 201.858 94.6136C202.971 94.6136 203.862 94.3826 204.528 93.9204C205.195 93.4508 205.528 92.8788 205.528 92.2045C205.528 91.6591 205.324 91.2007 204.915 90.8295C204.513 90.4583 203.896 90.178 203.062 89.9886L200.108 89.3409C198.479 88.9697 197.274 88.3788 196.494 87.5682C195.721 86.7576 195.335 85.7311 195.335 84.4886C195.335 83.4583 195.623 82.5568 196.199 81.7841C196.774 81.0114 197.57 80.4091 198.585 79.9773C199.6 79.5379 200.763 79.3182 202.074 79.3182C203.96 79.3182 205.445 79.7273 206.528 80.5454C207.612 81.3561 208.328 82.4432 208.676 83.8068Z" fill="#334155"/>
<path d="M182.457 97.3864C181.351 97.3864 180.351 97.1818 179.457 96.7727C178.563 96.3561 177.855 95.7538 177.332 94.9659C176.817 94.178 176.56 93.2121 176.56 92.0682C176.56 91.0833 176.749 90.2727 177.128 89.6364C177.507 89 178.018 88.4962 178.662 88.125C179.306 87.7538 180.025 87.4735 180.821 87.2841C181.616 87.0947 182.427 86.9507 183.253 86.8523C184.298 86.7311 185.147 86.6326 185.798 86.5568C186.45 86.4735 186.923 86.3409 187.219 86.1591C187.514 85.9773 187.662 85.6818 187.662 85.2727V85.1932C187.662 84.2007 187.382 83.4318 186.821 82.8864C186.268 82.3409 185.442 82.0682 184.344 82.0682C183.2 82.0682 182.298 82.322 181.639 82.8295C180.988 83.3295 180.537 83.8864 180.287 84.5L177.094 83.7727C177.472 82.7121 178.025 81.8561 178.753 81.2045C179.488 80.5454 180.332 80.0682 181.287 79.7727C182.241 79.4697 183.245 79.3182 184.298 79.3182C184.995 79.3182 185.734 79.4015 186.514 79.5682C187.302 79.7273 188.037 80.0227 188.719 80.4545C189.408 80.8864 189.972 81.5038 190.412 82.3068C190.851 83.1023 191.071 84.1364 191.071 85.4091V97H187.753V94.6136H187.616C187.397 95.053 187.067 95.4848 186.628 95.9091C186.188 96.3333 185.624 96.6856 184.935 96.9659C184.245 97.2462 183.419 97.3864 182.457 97.3864ZM183.196 94.6591C184.135 94.6591 184.938 94.4735 185.605 94.1023C186.279 93.7311 186.791 93.2462 187.139 92.6477C187.495 92.0417 187.673 91.3939 187.673 90.7045V88.4545C187.552 88.5757 187.317 88.6894 186.969 88.7954C186.628 88.8939 186.238 88.9811 185.798 89.0568C185.359 89.125 184.931 89.1894 184.514 89.25C184.097 89.303 183.749 89.3485 183.469 89.3864C182.81 89.4697 182.207 89.6098 181.662 89.8068C181.124 90.0038 180.692 90.2879 180.366 90.6591C180.048 91.0227 179.889 91.5076 179.889 92.1136C179.889 92.9545 180.2 93.5909 180.821 94.0227C181.442 94.447 182.234 94.6591 183.196 94.6591Z" fill="#334155"/>
<path d="M162.091 97H154.557V73.7273H162.329C164.61 73.7273 166.568 74.1932 168.204 75.125C169.841 76.0492 171.095 77.3788 171.966 79.1136C172.845 80.8409 173.284 82.9129 173.284 85.3295C173.284 87.7538 172.841 89.8371 171.954 91.5795C171.076 93.322 169.803 94.6629 168.136 95.6023C166.47 96.5341 164.454 97 162.091 97ZM158.068 93.9318H161.898C163.67 93.9318 165.144 93.5985 166.318 92.9318C167.492 92.2576 168.371 91.2841 168.954 90.0114C169.538 88.731 169.829 87.1704 169.829 85.3295C169.829 83.5038 169.538 81.9545 168.954 80.6818C168.379 79.4091 167.519 78.4432 166.375 77.7841C165.231 77.125 163.81 76.7954 162.113 76.7954H158.068V93.9318Z" fill="#334155"/>
<path d="M509.369 44.6364V55H505.972V37.5454H509.233V40.3864H509.449C509.85 39.4621 510.479 38.7197 511.335 38.1591C512.199 37.5985 513.286 37.3182 514.597 37.3182C515.786 37.3182 516.828 37.5682 517.722 38.0682C518.616 38.5606 519.309 39.2954 519.801 40.2727C520.294 41.25 520.54 42.4583 520.54 43.8977V55H517.142V44.3068C517.142 43.0417 516.813 42.053 516.154 41.3409C515.494 40.6212 514.589 40.2614 513.438 40.2614C512.65 40.2614 511.949 40.4318 511.335 40.7727C510.729 41.1136 510.248 41.6136 509.892 42.2727C509.544 42.9242 509.369 43.7121 509.369 44.6364Z" fill="#334155"/>
<path d="M492.832 55.3864C491.726 55.3864 490.726 55.1818 489.832 54.7727C488.938 54.3561 488.23 53.7538 487.707 52.9659C487.192 52.178 486.935 51.2121 486.935 50.0682C486.935 49.0833 487.124 48.2727 487.503 47.6364C487.882 47 488.393 46.4962 489.037 46.125C489.681 45.7538 490.4 45.4735 491.196 45.2841C491.991 45.0947 492.802 44.9508 493.628 44.8523C494.673 44.7311 495.522 44.6326 496.173 44.5568C496.825 44.4735 497.298 44.3409 497.594 44.1591C497.889 43.9773 498.037 43.6818 498.037 43.2727V43.1932C498.037 42.2008 497.757 41.4318 497.196 40.8864C496.643 40.3409 495.817 40.0682 494.719 40.0682C493.575 40.0682 492.673 40.322 492.014 40.8295C491.363 41.3295 490.912 41.8864 490.662 42.5L487.469 41.7727C487.847 40.7121 488.4 39.8561 489.128 39.2045C489.863 38.5454 490.707 38.0682 491.662 37.7727C492.616 37.4697 493.62 37.3182 494.673 37.3182C495.37 37.3182 496.109 37.4015 496.889 37.5682C497.677 37.7273 498.412 38.0227 499.094 38.4545C499.783 38.8864 500.347 39.5038 500.787 40.3068C501.226 41.1023 501.446 42.1364 501.446 43.4091V55H498.128V52.6136H497.991C497.772 53.053 497.442 53.4848 497.003 53.9091C496.563 54.3333 495.999 54.6856 495.31 54.9659C494.62 55.2462 493.794 55.3864 492.832 55.3864ZM493.571 52.6591C494.51 52.6591 495.313 52.4735 495.98 52.1023C496.654 51.7311 497.166 51.2462 497.514 50.6477C497.87 50.0417 498.048 49.3939 498.048 48.7045V46.4545C497.927 46.5758 497.692 46.6894 497.344 46.7954C497.003 46.8939 496.613 46.9811 496.173 47.0568C495.734 47.125 495.306 47.1894 494.889 47.25C494.472 47.303 494.124 47.3485 493.844 47.3864C493.185 47.4697 492.582 47.6098 492.037 47.8068C491.499 48.0038 491.067 48.2879 490.741 48.6591C490.423 49.0227 490.264 49.5076 490.264 50.1136C490.264 50.9545 490.575 51.5909 491.196 52.0227C491.817 52.447 492.609 52.6591 493.571 52.6591Z" fill="#334155"/>
<path d="M473.065 49.0795L473.043 44.9318H473.634L480.588 37.5454H484.656L476.725 45.9545H476.19L473.065 49.0795ZM469.94 55V31.7273H473.338V55H469.94ZM480.963 55L474.713 46.7045L477.054 44.3295L485.134 55H480.963Z" fill="#334155"/>
<path d="M461.971 55V37.5454H465.369V55H461.971ZM463.687 34.8523C463.096 34.8523 462.589 34.6553 462.165 34.2613C461.748 33.8598 461.54 33.3826 461.54 32.8295C461.54 32.2689 461.748 31.7917 462.165 31.3977C462.589 30.9962 463.096 30.7954 463.687 30.7954C464.278 30.7954 464.782 30.9962 465.199 31.3977C465.623 31.7917 465.835 32.2689 465.835 32.8295C465.835 33.3826 465.623 33.8598 465.199 34.2613C464.782 34.6553 464.278 34.8523 463.687 34.8523Z" fill="#334155"/>
<path d="M448.475 55.3409C447.066 55.3409 445.808 54.9811 444.702 54.2614C443.603 53.5341 442.74 52.5 442.111 51.1591C441.49 49.8106 441.179 48.1932 441.179 46.3068C441.179 44.4204 441.494 42.8068 442.122 41.4659C442.759 40.125 443.63 39.0985 444.736 38.3864C445.842 37.6742 447.096 37.3182 448.497 37.3182C449.581 37.3182 450.452 37.5 451.111 37.8636C451.778 38.2197 452.293 38.6364 452.656 39.1136C453.028 39.5909 453.316 40.0114 453.52 40.375H453.725V31.7273H457.122V55H453.804V52.2841H453.52C453.316 52.6553 453.02 53.0795 452.634 53.5568C452.255 54.0341 451.732 54.4508 451.066 54.8068C450.399 55.1629 449.535 55.3409 448.475 55.3409ZM449.225 52.4432C450.202 52.4432 451.028 52.1856 451.702 51.6704C452.384 51.1477 452.899 50.4242 453.247 49.5C453.603 48.5757 453.781 47.5 453.781 46.2727C453.781 45.0606 453.607 44 453.259 43.0909C452.91 42.1818 452.399 41.4735 451.725 40.9659C451.05 40.4583 450.217 40.2045 449.225 40.2045C448.202 40.2045 447.35 40.4697 446.668 41C445.986 41.5303 445.471 42.2538 445.122 43.1704C444.781 44.0871 444.611 45.1212 444.611 46.2727C444.611 47.4394 444.785 48.4886 445.134 49.4204C445.482 50.3523 445.997 51.0909 446.679 51.6364C447.369 52.1742 448.217 52.4432 449.225 52.4432Z" fill="#334155"/>
<path d="M433.971 55V37.5454H437.369V55H433.971ZM435.687 34.8523C435.096 34.8523 434.589 34.6553 434.165 34.2613C433.748 33.8598 433.54 33.3826 433.54 32.8295C433.54 32.2689 433.748 31.7917 434.165 31.3977C434.589 30.9962 435.096 30.7954 435.687 30.7954C436.278 30.7954 436.782 30.9962 437.199 31.3977C437.623 31.7917 437.835 32.2689 437.835 32.8295C437.835 33.3826 437.623 33.8598 437.199 34.2613C436.782 34.6553 436.278 34.8523 435.687 34.8523Z" fill="#334155"/>
<path d="M420.475 55.3409C419.066 55.3409 417.808 54.9811 416.702 54.2614C415.603 53.5341 414.74 52.5 414.111 51.1591C413.49 49.8106 413.179 48.1932 413.179 46.3068C413.179 44.4204 413.494 42.8068 414.122 41.4659C414.759 40.125 415.63 39.0985 416.736 38.3864C417.842 37.6742 419.096 37.3182 420.497 37.3182C421.581 37.3182 422.452 37.5 423.111 37.8636C423.778 38.2197 424.293 38.6364 424.656 39.1136C425.028 39.5909 425.316 40.0114 425.52 40.375H425.725V31.7273H429.122V55H425.804V52.2841H425.52C425.316 52.6553 425.02 53.0795 424.634 53.5568C424.255 54.0341 423.732 54.4508 423.066 54.8068C422.399 55.1629 421.535 55.3409 420.475 55.3409ZM421.225 52.4432C422.202 52.4432 423.028 52.1856 423.702 51.6704C424.384 51.1477 424.899 50.4242 425.247 49.5C425.603 48.5757 425.781 47.5 425.781 46.2727C425.781 45.0606 425.607 44 425.259 43.0909C424.91 42.1818 424.399 41.4735 423.725 40.9659C423.05 40.4583 422.217 40.2045 421.225 40.2045C420.202 40.2045 419.35 40.4697 418.668 41C417.986 41.5303 417.471 42.2538 417.122 43.1704C416.781 44.0871 416.611 45.1212 416.611 46.2727C416.611 47.4394 416.785 48.4886 417.134 49.4204C417.482 50.3523 417.997 51.0909 418.679 51.6364C419.369 52.1742 420.217 52.4432 421.225 52.4432Z" fill="#334155"/>
<path d="M398.213 44.6364V55H394.815V37.5454H398.077V40.3864H398.293C398.694 39.4621 399.323 38.7197 400.179 38.1591C401.043 37.5985 402.13 37.3182 403.44 37.3182C404.63 37.3182 405.671 37.5682 406.565 38.0682C407.459 38.5606 408.153 39.2954 408.645 40.2727C409.137 41.25 409.384 42.4583 409.384 43.8977V55H405.986V44.3068C405.986 43.0417 405.656 42.053 404.997 41.3409C404.338 40.6212 403.433 40.2614 402.281 40.2614C401.493 40.2614 400.793 40.4318 400.179 40.7727C399.573 41.1136 399.092 41.6136 398.736 42.2727C398.387 42.9242 398.213 43.7121 398.213 44.6364Z" fill="#334155"/>
<path d="M383.557 55.3523C381.837 55.3523 380.356 54.9848 379.114 54.25C377.879 53.5076 376.924 52.4659 376.25 51.125C375.583 49.7765 375.25 48.197 375.25 46.3864C375.25 44.5985 375.583 43.0227 376.25 41.6591C376.924 40.2954 377.864 39.2311 379.068 38.4659C380.28 37.7008 381.697 37.3182 383.318 37.3182C384.303 37.3182 385.258 37.4811 386.182 37.8068C387.106 38.1326 387.936 38.6439 388.67 39.3409C389.405 40.0379 389.985 40.9432 390.409 42.0568C390.833 43.1629 391.045 44.5076 391.045 46.0909V47.2954H377.17V44.75H387.716C387.716 43.8561 387.534 43.0644 387.17 42.375C386.807 41.678 386.295 41.1288 385.636 40.7273C384.985 40.3258 384.22 40.125 383.341 40.125C382.386 40.125 381.553 40.3598 380.841 40.8295C380.136 41.2917 379.591 41.8977 379.205 42.6477C378.826 43.3901 378.636 44.197 378.636 45.0682V47.0568C378.636 48.2235 378.841 49.2159 379.25 50.0341C379.667 50.8523 380.246 51.4773 380.989 51.9091C381.731 52.3333 382.598 52.5454 383.591 52.5454C384.235 52.5454 384.822 52.4545 385.352 52.2727C385.883 52.0833 386.341 51.803 386.727 51.4318C387.114 51.0606 387.409 50.6023 387.614 50.0568L390.83 50.6364C390.572 51.5833 390.11 52.4129 389.443 53.125C388.784 53.8295 387.955 54.3788 386.955 54.7727C385.962 55.1591 384.83 55.3523 383.557 55.3523Z" fill="#334155"/>
<path d="M356.057 55V31.7273H364.352C366.163 31.7273 367.663 32.0568 368.852 32.7159C370.041 33.375 370.932 34.2765 371.523 35.4204C372.113 36.5568 372.409 37.8371 372.409 39.2614C372.409 40.6932 372.11 41.9811 371.511 43.125C370.92 44.2614 370.026 45.1629 368.829 45.8295C367.64 46.4886 366.144 46.8182 364.341 46.8182H358.636V43.8409H364.023C365.166 43.8409 366.095 43.6439 366.807 43.25C367.519 42.8485 368.041 42.303 368.375 41.6136C368.708 40.9242 368.875 40.1401 368.875 39.2614C368.875 38.3826 368.708 37.6023 368.375 36.9204C368.041 36.2386 367.515 35.7045 366.795 35.3182C366.083 34.9318 365.144 34.7386 363.977 34.7386H359.568V55H356.057Z" fill="#334155"/>
<path d="M331.588 44.6364V55H328.19V37.5454H331.452V40.3864H331.668C332.069 39.4621 332.698 38.7197 333.554 38.1591C334.418 37.5985 335.505 37.3182 336.815 37.3182C338.005 37.3182 339.046 37.5682 339.94 38.0682C340.834 38.5606 341.528 39.2954 342.02 40.2727C342.512 41.25 342.759 42.4583 342.759 43.8977V55H339.361V44.3068C339.361 43.0417 339.031 42.053 338.372 41.3409C337.713 40.6212 336.808 40.2614 335.656 40.2614C334.868 40.2614 334.168 40.4318 333.554 40.7727C332.948 41.1136 332.467 41.6136 332.111 42.2727C331.762 42.9242 331.588 43.7121 331.588 44.6364Z" fill="#334155"/>
<path d="M315.051 55.3864C313.945 55.3864 312.945 55.1818 312.051 54.7727C311.157 54.3561 310.449 53.7538 309.926 52.9659C309.411 52.178 309.153 51.2121 309.153 50.0682C309.153 49.0833 309.343 48.2727 309.721 47.6364C310.1 47 310.612 46.4962 311.256 46.125C311.9 45.7538 312.619 45.4735 313.415 45.2841C314.21 45.0947 315.021 44.9508 315.846 44.8523C316.892 44.7311 317.74 44.6326 318.392 44.5568C319.043 44.4735 319.517 44.3409 319.812 44.1591C320.108 43.9773 320.256 43.6818 320.256 43.2727V43.1932C320.256 42.2008 319.975 41.4318 319.415 40.8864C318.862 40.3409 318.036 40.0682 316.937 40.0682C315.793 40.0682 314.892 40.322 314.233 40.8295C313.581 41.3295 313.131 41.8864 312.881 42.5L309.687 41.7727C310.066 40.7121 310.619 39.8561 311.346 39.2045C312.081 38.5454 312.926 38.0682 313.881 37.7727C314.835 37.4697 315.839 37.3182 316.892 37.3182C317.589 37.3182 318.328 37.4015 319.108 37.5682C319.896 37.7273 320.631 38.0227 321.312 38.4545C322.002 38.8864 322.566 39.5038 323.006 40.3068C323.445 41.1023 323.665 42.1364 323.665 43.4091V55H320.346V52.6136H320.21C319.99 53.053 319.661 53.4848 319.221 53.9091C318.782 54.3333 318.218 54.6856 317.528 54.9659C316.839 55.2462 316.013 55.3864 315.051 55.3864ZM315.79 52.6591C316.729 52.6591 317.532 52.4735 318.199 52.1023C318.873 51.7311 319.384 51.2462 319.733 50.6477C320.089 50.0417 320.267 49.3939 320.267 48.7045V46.4545C320.146 46.5758 319.911 46.6894 319.562 46.7954C319.221 46.8939 318.831 46.9811 318.392 47.0568C317.953 47.125 317.525 47.1894 317.108 47.25C316.691 47.303 316.343 47.3485 316.062 47.3864C315.403 47.4697 314.801 47.6098 314.256 47.8068C313.718 48.0038 313.286 48.2879 312.96 48.6591C312.642 49.0227 312.483 49.5076 312.483 50.1136C312.483 50.9545 312.793 51.5909 313.415 52.0227C314.036 52.447 314.828 52.6591 315.79 52.6591Z" fill="#334155"/>
<path d="M302.003 55V37.5454H305.401V55H302.003ZM303.719 34.8523C303.128 34.8523 302.621 34.6553 302.196 34.2613C301.78 33.8598 301.571 33.3826 301.571 32.8295C301.571 32.2689 301.78 31.7917 302.196 31.3977C302.621 30.9962 303.128 30.7954 303.719 30.7954C304.31 30.7954 304.814 30.9962 305.23 31.3977C305.655 31.7917 305.867 32.2689 305.867 32.8295C305.867 33.3826 305.655 33.8598 305.23 34.2613C304.814 34.6553 304.31 34.8523 303.719 34.8523Z" fill="#334155"/>
<path d="M289.722 55V37.5454H293.006V40.3181H293.188C293.506 39.3788 294.066 38.6401 294.869 38.1022C295.68 37.5568 296.597 37.2841 297.619 37.2841C297.832 37.2841 298.082 37.2916 298.369 37.3068C298.665 37.3219 298.896 37.3409 299.063 37.3636V40.6136C298.926 40.5757 298.684 40.5341 298.335 40.4886C297.987 40.4356 297.638 40.4091 297.29 40.4091C296.487 40.4091 295.771 40.5795 295.142 40.9204C294.521 41.2538 294.029 41.7197 293.665 42.3181C293.301 42.9091 293.119 43.5833 293.119 44.3409V55H289.722Z" fill="#334155"/>
<path d="M278.463 55.3523C276.743 55.3523 275.262 54.9848 274.02 54.25C272.785 53.5076 271.83 52.4659 271.156 51.125C270.49 49.7765 270.156 48.197 270.156 46.3864C270.156 44.5985 270.49 43.0227 271.156 41.6591C271.83 40.2954 272.77 39.2311 273.974 38.4659C275.187 37.7008 276.603 37.3182 278.224 37.3182C279.209 37.3182 280.164 37.4811 281.088 37.8068C282.012 38.1326 282.842 38.6439 283.577 39.3409C284.312 40.0379 284.891 40.9432 285.315 42.0568C285.74 43.1629 285.952 44.5076 285.952 46.0909V47.2954H272.077V44.75H282.622C282.622 43.8561 282.44 43.0644 282.077 42.375C281.713 41.678 281.202 41.1288 280.543 40.7273C279.891 40.3258 279.126 40.125 278.247 40.125C277.293 40.125 276.459 40.3598 275.747 40.8295C275.043 41.2917 274.497 41.8977 274.111 42.6477C273.732 43.3901 273.543 44.197 273.543 45.0682V47.0568C273.543 48.2235 273.747 49.2159 274.156 50.0341C274.573 50.8523 275.152 51.4773 275.895 51.9091C276.637 52.3333 277.505 52.5454 278.497 52.5454C279.141 52.5454 279.728 52.4545 280.259 52.2727C280.789 52.0833 281.247 51.803 281.634 51.4318C282.02 51.0606 282.315 50.6023 282.52 50.0568L285.736 50.6364C285.478 51.5833 285.016 52.4129 284.349 53.125C283.69 53.8295 282.861 54.3788 281.861 54.7727C280.868 55.1591 279.736 55.3523 278.463 55.3523Z" fill="#334155"/>
<path d="M267.37 37.5454V40.2727H257.835V37.5454H267.37ZM260.392 33.3636H263.79V49.875C263.79 50.5341 263.888 51.0303 264.085 51.3636C264.282 51.6894 264.536 51.9129 264.847 52.0341C265.165 52.1477 265.51 52.2045 265.881 52.2045C266.154 52.2045 266.392 52.1856 266.597 52.1477C266.801 52.1098 266.96 52.0795 267.074 52.0568L267.688 54.8636C267.491 54.9394 267.21 55.0151 266.847 55.0909C266.483 55.1742 266.029 55.2197 265.483 55.2273C264.589 55.2424 263.756 55.0833 262.983 54.75C262.21 54.4166 261.585 53.9015 261.108 53.2045C260.631 52.5076 260.392 51.6326 260.392 50.5795V33.3636Z" fill="#334155"/>
<path d="M243.494 44.6364V55H240.097V37.5454H243.358V40.3864H243.574C243.975 39.4621 244.604 38.7197 245.46 38.1591C246.324 37.5985 247.411 37.3182 248.722 37.3182C249.911 37.3182 250.953 37.5682 251.847 38.0682C252.741 38.5606 253.434 39.2954 253.926 40.2727C254.419 41.25 254.665 42.4583 254.665 43.8977V55H251.267V44.3068C251.267 43.0417 250.938 42.053 250.279 41.3409C249.619 40.6212 248.714 40.2614 247.563 40.2614C246.775 40.2614 246.074 40.4318 245.46 40.7727C244.854 41.1136 244.373 41.6136 244.017 42.2727C243.669 42.9242 243.494 43.7121 243.494 44.6364Z" fill="#334155"/>
<path d="M228.838 55.3523C227.118 55.3523 225.637 54.9848 224.395 54.25C223.16 53.5076 222.205 52.4659 221.531 51.125C220.865 49.7765 220.531 48.197 220.531 46.3864C220.531 44.5985 220.865 43.0227 221.531 41.6591C222.205 40.2954 223.145 39.2311 224.349 38.4659C225.562 37.7008 226.978 37.3182 228.599 37.3182C229.584 37.3182 230.539 37.4811 231.463 37.8068C232.387 38.1326 233.217 38.6439 233.952 39.3409C234.687 40.0379 235.266 40.9432 235.69 42.0568C236.115 43.1629 236.327 44.5076 236.327 46.0909V47.2954H222.452V44.75H232.997C232.997 43.8561 232.815 43.0644 232.452 42.375C232.088 41.678 231.577 41.1288 230.918 40.7273C230.266 40.3258 229.501 40.125 228.622 40.125C227.668 40.125 226.834 40.3598 226.122 40.8295C225.418 41.2917 224.872 41.8977 224.486 42.6477C224.107 43.3901 223.918 44.197 223.918 45.0682V47.0568C223.918 48.2235 224.122 49.2159 224.531 50.0341C224.948 50.8523 225.527 51.4773 226.27 51.9091C227.012 52.3333 227.88 52.5454 228.872 52.5454C229.516 52.5454 230.103 52.4545 230.634 52.2727C231.164 52.0833 231.622 51.803 232.009 51.4318C232.395 51.0606 232.69 50.6023 232.895 50.0568L236.111 50.6364C235.853 51.5833 235.391 52.4129 234.724 53.125C234.065 53.8295 233.236 54.3788 232.236 54.7727C231.243 55.1591 230.111 55.3523 228.838 55.3523Z" fill="#334155"/>
<path d="M193.034 55V37.5454H196.296V40.3864H196.511C196.875 39.4242 197.47 38.6742 198.296 38.1364C199.121 37.5909 200.11 37.3182 201.261 37.3182C202.428 37.3182 203.405 37.5909 204.193 38.1364C204.989 38.6818 205.576 39.4318 205.955 40.3864H206.136C206.553 39.4545 207.216 38.7121 208.125 38.1591C209.034 37.5985 210.118 37.3182 211.375 37.3182C212.958 37.3182 214.25 37.8144 215.25 38.8068C216.258 39.7992 216.761 41.2954 216.761 43.2954V55H213.364V43.6136C213.364 42.4318 213.042 41.5758 212.398 41.0454C211.754 40.5151 210.985 40.25 210.091 40.25C208.985 40.25 208.125 40.5909 207.511 41.2727C206.898 41.947 206.591 42.8144 206.591 43.875V55H203.205V43.3977C203.205 42.4508 202.909 41.6894 202.318 41.1136C201.727 40.5379 200.958 40.25 200.011 40.25C199.368 40.25 198.773 40.4204 198.227 40.7614C197.689 41.0947 197.254 41.5606 196.921 42.1591C196.595 42.7576 196.432 43.4508 196.432 44.2386V55H193.034Z" fill="#334155"/>
<path d="M181.776 55.3523C180.056 55.3523 178.575 54.9848 177.332 54.25C176.098 53.5076 175.143 52.4659 174.469 51.125C173.802 49.7765 173.469 48.197 173.469 46.3864C173.469 44.5985 173.802 43.0227 174.469 41.6591C175.143 40.2954 176.082 39.2311 177.287 38.4659C178.499 37.7008 179.916 37.3182 181.537 37.3182C182.522 37.3182 183.476 37.4811 184.401 37.8068C185.325 38.1326 186.154 38.6439 186.889 39.3409C187.624 40.0379 188.204 40.9432 188.628 42.0568C189.052 43.1629 189.264 44.5076 189.264 46.0909V47.2954H175.389V44.75H185.935C185.935 43.8561 185.753 43.0644 185.389 42.375C185.026 41.678 184.514 41.1288 183.855 40.7273C183.204 40.3258 182.438 40.125 181.56 40.125C180.605 40.125 179.772 40.3598 179.06 40.8295C178.355 41.2917 177.81 41.8977 177.423 42.6477C177.045 43.3901 176.855 44.197 176.855 45.0682V47.0568C176.855 48.2235 177.06 49.2159 177.469 50.0341C177.885 50.8523 178.465 51.4773 179.207 51.9091C179.95 52.3333 180.817 52.5454 181.81 52.5454C182.454 52.5454 183.041 52.4545 183.571 52.2727C184.101 52.0833 184.56 51.803 184.946 51.4318C185.332 51.0606 185.628 50.6023 185.832 50.0568L189.048 50.6364C188.791 51.5833 188.329 52.4129 187.662 53.125C187.003 53.8295 186.173 54.3788 185.173 54.7727C184.181 55.1591 183.048 55.3523 181.776 55.3523Z" fill="#334155"/>
<path d="M154.557 55V31.7273H158.068V42.8409H158.352L168.113 31.7273H172.534L163.148 42.2045L172.568 55H168.341L160.818 44.6023L158.068 47.7614V55H154.557Z" fill="#334155"/>
</svg>